<svg width="168" height="168" viewBox="0 0 168 168" fill="none" xmlns="http://www.w3.org/2000/svg">
<rect x="0.5" y="0.5" width="167" height="167" rx="4.5" fill="white" stroke="url(#paint0_linear_49106_2755)"/>
<path d="M82.7487 42.264C82.3993 41.9363 82.0498 41.6961 81.7222 41.5213C81.3945 41.3684 81.0232 41.2811 80.6082 41.2811C80.1277 41.2811 79.7782 41.3903 79.5379 41.5869C79.2977 41.7834 79.1666 42.1111 79.1666 42.5479C79.1666 42.8537 79.2977 43.1377 79.5598 43.3342C79.8219 43.5527 80.1277 43.7492 80.5208 43.9458C80.914 44.1424 81.329 44.339 81.7658 44.5574C82.2027 44.7758 82.6177 45.0161 83.0108 45.3219C83.404 45.6277 83.7098 45.9771 83.9719 46.414C84.234 46.8508 84.3651 47.375 84.3651 47.9866C84.3651 48.9258 84.103 49.734 83.6006 50.4111C83.0982 51.0882 82.3119 51.5251 81.3072 51.7653V53.8185H79.4069V51.8527C78.839 51.7872 78.2274 51.6343 77.594 51.3722C76.9606 51.1101 76.4145 50.7824 75.9558 50.3674L77.2227 48.4235C77.725 48.7948 78.2056 49.0787 78.6424 49.2753C79.1011 49.4719 79.5598 49.5593 80.0185 49.5593C80.5645 49.5593 80.9795 49.4501 81.2198 49.2316C81.4819 49.0132 81.6129 48.6637 81.6129 48.2051C81.6129 47.8556 81.4819 47.5716 81.2198 47.3314C80.9577 47.0911 80.6519 46.8727 80.2587 46.6543C79.8656 46.4358 79.4506 46.2174 79.0137 45.999C78.5769 45.7806 78.1619 45.5185 77.7687 45.2127C77.3756 44.9069 77.0698 44.5574 76.8077 44.1424C76.5455 43.7274 76.4145 43.2469 76.4145 42.6571C76.4145 41.6961 76.6766 40.8879 77.2008 40.2545C77.725 39.6211 78.4677 39.2061 79.385 39.0313V37H81.2853V38.9876C81.9187 39.075 82.4648 39.2716 82.9453 39.5555C83.4258 39.8395 83.8408 40.189 84.234 40.604L82.7487 42.264Z" fill="#333B41"/>
<path fill-rule="evenodd" clip-rule="evenodd" d="M129.775 113.001L126.181 110.789L118.164 125.164L122.035 127.099L129.775 113.001Z" fill="#333B41"/>
<path fill-rule="evenodd" clip-rule="evenodd" d="M124.246 110.236C114.847 99.4543 106.554 102.219 95.4959 109.406C85.8205 115.764 78.633 111.341 71.4455 114.382C69.7869 115.211 67.2989 117.147 69.5104 119.082C70.6162 119.911 75.0393 120.74 76.4215 120.464C83.8854 118.805 86.0969 122.122 97.431 119.911C94.1137 122.399 83.3325 120.74 76.6979 121.57C71.4455 122.675 62.8759 118.529 69.7869 113.829C66.746 112.447 63.9816 111.618 60.6643 111.341C57.3471 108.853 52.0947 105.812 49.3303 104.707C47.1187 103.324 41.5899 103.877 45.1837 107.471C48.7774 110.788 58.4528 118.252 60.3879 119.358C68.1282 124.058 75.3157 127.375 82.7796 131.521C82.7796 131.521 85.2676 132.904 90.2435 130.969C93.8372 129.31 109.871 120.464 113.741 121.846C115.953 122.675 117.058 123.228 117.058 123.228L124.246 110.236Z" stroke="#333B41" stroke-width="1.5"/>
<path fill-rule="evenodd" clip-rule="evenodd" d="M77.5278 109.406C78.0807 108.3 78.6336 107.471 79.4629 107.195C80.2922 106.918 80.5687 107.471 81.1216 108.024C81.6744 108.853 81.9509 109.13 82.7802 109.682C83.0566 109.959 83.6095 109.959 83.886 109.959L83.3331 109.682C82.5038 109.13 81.9509 108.577 82.2273 107.471C82.2273 107.195 81.9509 106.642 82.5038 106.642C83.0566 106.918 83.886 107.471 84.7153 107.471C84.7153 107.471 85.5446 107.747 85.2682 107.471C85.2682 107.195 84.7153 106.918 84.4388 106.642C82.7802 105.259 82.7802 104.983 82.7802 103.048C83.0566 100.283 81.9509 98.072 80.0158 96.1369C75.5927 91.7138 77.5278 85.6321 80.8451 79.8269C83.886 74.5745 86.6504 73.7452 83.6095 67.387C82.5038 64.6226 80.5687 61.8582 80.2922 60.1996C80.2922 59.6467 80.2922 59.9231 80.2922 60.1996C80.0158 61.8582 81.1216 64.3462 82.2273 66.8342C84.7153 72.363 84.1624 72.9159 80.5687 77.8918C76.6985 82.8677 73.9341 88.1201 75.5927 93.6489C76.6985 97.5191 82.2273 101.389 79.4629 103.877C78.0807 104.983 76.1456 107.747 75.8692 109.406C75.5927 110.235 75.5927 110.235 75.3163 110.788C75.0399 111.065 75.3163 111.065 75.5927 111.065C76.9749 110.788 76.9749 110.235 77.5278 109.406Z" fill="#333B41"/>
<path d="M95.8429 83.529L96.755 83.2684L96.7981 84.2161C96.9459 87.4683 95.5534 91.3664 93.2642 94.4425C92.0772 96.0375 90.6155 97.4545 88.9547 98.4487C90.0478 98.074 91.2508 97.3838 92.4679 96.1695C95.7026 92.6792 96.5945 88.2419 97.6307 82.5536C96.6652 82.6402 95.7139 82.8564 94.737 83.1392C94.096 83.3247 93.4522 83.5364 92.786 83.757C92.7457 83.7704 92.7052 83.7838 92.6648 83.7972C92.0473 84.0018 91.4107 84.2127 90.7579 84.4089C85.6293 86.3021 82.8538 88.6595 81.8454 91.3645C81.5951 92.654 81.63 93.8192 82.0684 94.696L82.1052 94.7696L82.1251 94.8495C82.2985 95.5427 83 96.1847 83.9413 96.7019C84.9925 95.713 85.7253 94.8296 86.446 93.9124C86.2707 94.0928 86.1068 94.265 85.9519 94.428C85.8261 94.5602 85.7062 94.6863 85.5907 94.8057C85.3944 95.0085 85.2043 95.1985 85.0295 95.3497C84.8721 95.4858 84.6524 95.6584 84.3991 95.7429L84.2102 95.8059L84.0149 95.7668C83.1201 95.5879 82.4476 95.0935 82.1719 94.2664C81.9248 93.5252 82.0477 92.6546 82.3357 91.7804C82.83 89.8473 84.3457 88.3363 86.5888 87.0545C88.8467 85.7643 91.9586 84.6388 95.8429 83.529Z" stroke="#333B41" stroke-width="1.5"/>
<path d="M69.1344 65.3643C67.6582 64.8492 66.3723 64.4005 64.9336 64.1376C64.9829 64.3788 65.0313 64.6174 65.0792 64.8534C65.2097 65.4962 65.3363 66.1198 65.4655 66.7246C65.4297 66.2771 65.422 65.8382 65.4444 65.4123L65.4942 64.4666L66.4034 64.7318C69.7359 65.7037 72.4286 66.6903 74.4057 67.8047C76.1697 68.7989 77.4573 69.9473 78.0631 71.3665C77.2232 69.1059 75.0121 67.1686 70.6813 65.8948L70.6684 65.8911L70.6557 65.8868C70.1203 65.7083 69.6171 65.5328 69.1344 65.3643ZM68.4595 74.3306C67.8749 73.544 67.3598 72.692 66.9279 71.809C67.5337 73.2532 68.3329 74.5474 69.4881 75.7026L69.498 75.7124L69.5074 75.7226C70.1438 76.4079 70.7828 76.8995 71.3999 77.2466C70.2794 76.4579 69.2884 75.4458 68.4595 74.3306ZM78.2389 74.5153C78.6733 73.6464 78.6858 72.8128 78.2763 71.9459C78.5594 72.7323 78.5714 73.5125 78.2859 74.1786C77.9798 74.893 77.3674 75.3874 76.6036 75.5784L76.3917 75.6313L76.1845 75.5623C76.1 75.5341 76.0191 75.4969 75.943 75.4549C76.1171 75.6533 76.3004 75.8554 76.4965 76.0632L76.5163 76.0582C77.4752 75.8185 77.9986 75.4027 78.1821 74.6688L78.202 74.589L78.2389 74.5153Z" stroke="#333B41" stroke-width="1.5"/>
<path d="M93.5566 65.6732C93.2311 66.0618 92.8833 66.4321 92.5153 66.7769C92.6818 66.6372 92.8494 66.4842 93.0175 66.3168C93.2081 66.1065 93.3874 65.892 93.5566 65.6732ZM96.7653 56.4627C96.768 56.448 96.7707 56.4334 96.7734 56.4187C95.2418 56.7171 93.6647 57.1954 91.8887 57.8614L91.8887 57.8615L91.8776 57.8654C88.4003 59.1073 86.4897 60.5076 85.6388 62.3816C86.2182 61.192 87.2605 60.2206 88.7292 59.3769C90.4375 58.3955 92.792 57.5463 95.851 56.712L96.7653 56.4627ZM86.6887 66.1639C86.3879 66.0636 86.128 65.9102 85.9149 65.7121C86.1031 66.0573 86.3626 66.3412 86.7254 66.5207C86.8308 66.4111 86.9321 66.3035 87.03 66.1976C86.996 66.2007 86.9612 66.2024 86.9258 66.2024H86.8041L86.6887 66.1639Z" stroke="#333B41" stroke-width="1.5"/>
<defs>
<linearGradient id="paint0_linear_49106_2755" x1="-7.44304" y1="24.8889" x2="195.1" y2="114.913" gradientUnits="userSpaceOnUse">
<stop stop-color="#F9804B"/>
<stop offset="1" stop-color="#FE9013"/>
</linearGradient>
</defs>
</svg>
