<svg width="168" height="168" viewBox="0 0 168 168" fill="none" xmlns="http://www.w3.org/2000/svg">
<rect x="0.5" y="0.5" width="167" height="167" rx="4.5" fill="white" stroke="url(#paint0_linear_49106_3998)"/>
<path d="M66.3982 99.0545C66.218 98.7136 66.0378 98.4296 65.9177 98.0887C65.0768 96.1572 65.0768 94.6802 65.3771 92.8055C65.6174 91.4421 65.5573 90.7604 65.1368 90.2491C64.6563 89.6811 63.9355 89.6242 62.9144 89.5106H62.7342C62.4338 89.4538 62.1335 89.4538 61.8932 89.4538C59.5506 89.3402 58.2292 89.397 57.6285 90.2491C57.0278 91.0445 57.4483 92.2374 58.2892 93.9417C58.7097 94.7938 58.8899 95.646 59.01 96.2709C57.9889 96.3277 56.7876 96.7821 55.346 97.3502C52.4027 98.4864 48.3782 100.077 43.4528 98.6568C37.6263 97.0094 32.7609 92.6351 30.118 90.2491C28.8566 89.113 28.316 88.6017 27.8955 88.4881C27.2948 88.3176 26.514 88.7153 26.0935 88.9425L25.8532 89.0562C25.5529 89.2834 25.1324 89.6242 24.9522 90.0219C24.5318 91.3285 24.4717 93.7713 25.4928 96.4981C25.1324 96.3277 24.8922 96.2709 24.6519 96.214C24.0512 96.1572 23.3905 96.6117 22.8499 97.123L22.6697 97.2934C22.3694 97.5775 22.009 98.0319 22.009 98.4864C21.8888 100.588 22.97 103.883 25.5529 106.951H25.4928C24.8922 107.064 24.3516 107.746 23.9912 108.371V108.598C23.811 108.996 23.6308 109.507 23.6908 109.962C24.2915 112.291 26.7542 115.643 30.8988 117.972C33.4216 119.392 37.2659 120.755 42.5518 120.755C44.8944 120.755 47.5373 120.471 50.4205 119.79C57.2681 118.199 63.6352 113.597 66.218 108.201C67.8398 105.019 67.8999 101.838 66.3982 99.0545ZM26.0334 90.3059C26.0334 90.3059 26.0935 90.2491 26.0935 90.1923C26.2136 90.4196 26.3938 90.7036 26.574 90.9877C28.1358 93.6577 31.5596 99.6794 39.6085 102.69C34.623 101.497 30.178 99.0545 27.5351 97.5775C27.3549 97.4638 27.1747 97.3502 26.9945 97.2934C25.7331 94.5098 25.5529 91.783 26.0334 90.3059ZM23.1502 98.6C23.1502 98.6 23.1502 98.4864 23.2704 98.3728C23.4506 98.5432 23.7509 98.8841 24.0512 99.1681C26.574 101.838 32.5206 108.144 43.3927 108.769C43.7531 108.769 44.0534 108.769 44.4138 108.769C45.495 108.769 46.6363 108.655 47.6574 108.428C47.5373 108.485 47.3571 108.485 47.237 108.542C40.4494 110.075 32.9411 108.371 28.9166 107.462C28.2559 107.292 27.7153 107.178 27.2948 107.121C24.2314 104.11 23.0301 100.588 23.1502 98.6ZM65.257 107.86C62.7942 112.916 56.7876 117.347 50.2403 118.824C33.5418 122.63 25.7331 113.484 24.772 109.735C24.772 109.678 24.772 109.621 24.8321 109.45C25.1324 109.564 25.4928 109.791 25.8532 110.019C29.277 112.007 37.2659 116.608 48.3782 114.052C55.7064 112.405 59.4305 107.064 61.5929 103.145C61.713 102.917 61.653 102.577 61.3526 102.463C61.1124 102.349 60.752 102.406 60.6318 102.69C58.5896 106.383 54.9856 111.496 48.0779 113.086C37.386 115.529 29.6975 111.041 26.3938 109.166C25.9133 108.882 25.5529 108.655 25.2526 108.542C25.4928 108.201 25.7331 107.973 25.8532 107.973C26.1536 107.917 27.415 108.201 28.6163 108.485C31.4995 109.166 36.1847 110.189 41.1702 110.189C43.2125 110.189 45.3749 110.019 47.4172 109.507C52.703 108.314 55.8265 105.303 58.3493 102.236C58.5295 102.009 58.4694 101.668 58.2292 101.497C57.9889 101.327 57.6285 101.384 57.4483 101.611C57.208 101.895 56.9077 102.236 56.6674 102.52C52.4027 106.269 48.0178 107.973 43.3326 107.689C32.9411 107.121 27.1747 101.043 24.712 98.4296C24.3516 98.0319 24.1113 97.8047 23.871 97.5775C24.1714 97.3502 24.4116 97.2366 24.5318 97.2366C24.8321 97.2934 25.8532 97.8615 26.8744 98.4296C30.3582 100.361 36.8454 103.94 43.693 104.338C44.0534 104.338 44.3538 104.338 44.7142 104.338C47.1168 104.338 49.1591 103.883 50.9611 103.145H51.0212C51.0812 103.145 51.0812 103.088 51.1413 103.088C53.4238 102.179 55.2258 100.929 56.7876 99.9066C57.3282 99.5658 57.8087 99.2249 58.2292 98.9409C58.4694 98.7704 58.5295 98.4864 58.4094 98.2592C58.2292 98.0319 57.9288 97.9751 57.6886 98.0887C57.208 98.3728 56.7275 98.7136 56.1869 99.0545C54.6252 100.077 52.8232 101.327 50.5406 102.179C47.5974 103.031 44.7142 103.088 41.9511 102.293C32.821 99.7362 29.0968 93.2032 27.475 90.4196C27.2348 90.0219 27.1146 89.7379 26.9344 89.5106C27.2348 89.397 27.415 89.3402 27.5351 89.3402C27.7754 89.4538 28.5562 90.1355 29.3371 90.874C31.98 93.26 36.9656 97.7479 43.0323 99.4521C44.534 99.8498 45.9756 100.02 47.297 100.02C50.6608 100.02 53.4238 98.9409 55.6463 98.0887C57.208 97.4638 58.5295 96.9526 59.4305 97.123H59.4906H59.5506C59.5506 97.123 59.5506 97.123 59.6107 97.123C59.6708 97.123 59.6708 97.123 59.7308 97.0662C59.7308 97.0662 59.7909 97.0662 59.7909 97.0094C59.851 97.0094 59.851 96.9526 59.911 96.9526L59.9711 96.8958C59.9711 96.8958 60.0312 96.8389 60.0312 96.7821C60.0312 96.7253 60.0312 96.7253 60.0912 96.6685C60.0912 96.6685 60.0912 96.6685 60.0912 96.6117V96.5549V96.4981C60.0312 95.8164 59.851 94.453 59.2503 93.2032C58.95 92.5783 58.1691 90.9877 58.5295 90.5332C58.8298 90.0787 60.4516 90.1355 61.8932 90.1923C62.1335 90.1923 62.3738 90.1923 62.614 90.2491H62.7942C63.5751 90.3059 64.1157 90.4196 64.2959 90.59C64.4761 90.8172 64.4761 91.3853 64.356 92.3511C63.9956 94.3394 63.9956 96.0436 64.9566 98.2023C65.0768 98.5432 65.257 98.8841 65.4372 99.2249C66.7586 102.009 66.6986 104.849 65.257 107.86Z" fill="#333B41" stroke="#333B41" stroke-width="0.7"/>
<path d="M63.6965 106.894C63.4562 106.78 63.0958 106.894 62.9757 107.121C60.6932 111.779 55.107 115.869 49.0403 117.233C48.7399 117.29 48.5597 117.574 48.6198 117.858C48.6799 118.085 48.9201 118.255 49.1604 118.255C49.2205 118.255 49.2205 118.255 49.2805 118.255C55.7076 116.835 61.5942 112.518 63.9968 107.575C64.117 107.348 63.9968 107.064 63.6965 106.894Z" fill="#333B41" stroke="#333B41" stroke-width="0.7"/>
<path d="M89.6255 50.0077C86.4284 49.9054 83.2819 50.8276 80.6419 52.6407C78.0019 54.4539 76.0055 57.0638 74.9418 60.0923C74.8919 60.2345 74.8049 60.3607 74.6898 60.4576C74.5748 60.5545 74.4359 60.6186 74.2877 60.6433C72.6668 60.9186 71.1971 61.7659 70.1431 63.0324C69.0891 64.299 68.5201 65.9018 68.5385 67.552C68.5569 69.2023 69.1616 70.7917 70.2436 72.0342C71.3256 73.2767 72.8139 74.0909 74.4405 74.3297C74.6026 74.3535 74.7543 74.4244 74.8767 74.5337C74.9991 74.643 75.087 74.7858 75.1294 74.9447C75.9252 77.9208 77.6403 80.5671 80.0282 82.5033C82.416 84.4395 85.3538 85.5659 88.4193 85.7209C87.7502 88.1745 87.3446 90.693 87.2096 93.2333L82.1491 92.4302C81.0822 92.2608 79.992 92.5238 79.1183 93.1613C78.2446 93.7988 77.6589 94.7585 77.4901 95.8296C77.3213 96.9006 77.5832 97.995 78.2181 98.8722C78.8531 99.7494 79.8091 100.337 80.8759 100.507L87.7495 101.597C87.9445 102.666 88.1882 103.725 88.4796 104.771C86.9155 106.479 86.0475 108.715 86.0477 111.035V112.481C86.0475 112.705 85.9592 112.919 85.802 113.076C85.6449 113.234 85.4318 113.323 85.2096 113.323H84.7079C84.1132 113.323 83.5241 113.44 82.9745 113.668C82.4249 113.897 81.9255 114.231 81.5047 114.653C81.084 115.075 80.7503 115.577 80.5225 116.128C80.2948 116.68 80.1775 117.271 80.1775 117.868V119.054C80.1775 119.389 80.2434 119.721 80.3712 120.03C80.4991 120.34 80.6864 120.621 80.9226 120.858C81.1588 121.094 81.4391 121.282 81.7476 121.41C82.0561 121.538 82.3866 121.604 82.7204 121.603H114.923C119.252 121.604 123.532 120.686 127.483 118.91C131.434 117.133 134.966 114.539 137.848 111.296C142.41 106.704 145.459 100.818 146.582 94.4318C147.273 88.885 145.773 83.2873 142.404 78.8364C139.774 75.4476 136.2 72.9195 132.137 71.5725C129.33 70.7241 126.327 70.7963 123.564 71.7788C120.801 72.7613 118.423 74.6028 116.774 77.0356C116.46 77.4967 116.241 78.0152 116.127 78.5616C116.014 79.108 116.008 79.6713 116.112 80.2197C116.215 80.7681 116.426 81.2906 116.73 81.7574C117.035 82.2241 117.429 82.6261 117.888 82.94C118.348 83.254 118.865 83.4738 119.409 83.5871C119.953 83.7004 120.515 83.7049 121.061 83.6003C121.607 83.4957 122.127 83.2839 122.592 82.9773C123.056 82.6707 123.456 82.2752 123.768 81.8134C124.395 80.8884 125.296 80.1847 126.343 79.8015C127.39 79.4183 128.53 79.3751 129.603 79.678C132.011 80.5014 134.128 82.0083 135.699 84.0159C137.667 86.637 138.567 89.9127 138.214 93.1761C137.343 97.8459 135.066 102.135 131.689 105.463C128.458 109.178 124.093 111.715 119.276 112.679C119.236 112.687 119.195 112.685 119.157 112.672C119.118 112.66 119.083 112.639 119.055 112.609C119.027 112.58 119.007 112.545 118.996 112.506C118.985 112.466 118.984 112.425 118.993 112.386C120.479 106.132 120.056 99.5742 117.78 93.5647C116.615 89.7952 114.669 86.3154 112.072 83.3527C109.474 80.39 106.283 78.0115 102.706 76.3725C102.884 75.9048 103.037 75.4281 103.166 74.9445C103.209 74.7856 103.297 74.6428 103.419 74.5335C103.542 74.4242 103.693 74.3533 103.855 74.3295C105.482 74.0903 106.97 73.276 108.052 72.0332C109.133 70.7904 109.738 69.2007 109.756 67.5504C109.774 65.9001 109.204 64.2977 108.15 63.0314C107.096 61.7651 105.626 60.9181 104.005 60.6431C103.857 60.6184 103.718 60.5543 103.603 60.4574C103.488 60.3605 103.401 60.2343 103.351 60.0921C102.342 57.2186 100.491 54.7183 98.0422 52.9188C95.5931 51.1193 92.6589 50.1046 89.6255 50.0077ZM88.6825 51.1136C91.6461 51.0181 94.5631 51.8727 97.0103 53.5536C99.4575 55.2344 101.308 57.6542 102.293 60.4619C102.409 60.7905 102.61 61.082 102.875 61.3062C103.141 61.5304 103.462 61.6791 103.804 61.7368C105.165 61.9681 106.399 62.6794 107.284 63.7425C108.169 64.8057 108.647 66.151 108.632 67.5364C108.617 68.9218 108.11 70.2565 107.203 71.3002C106.295 72.344 105.046 73.0284 103.681 73.2302C103.305 73.2852 102.954 73.4494 102.67 73.7026C102.386 73.9558 102.182 74.2868 102.084 74.6549C101.664 76.2271 100.964 77.7098 100.017 79.0311C100.145 76.4422 99.252 73.9069 97.531 71.9745C97.5115 71.948 97.4975 71.9177 97.4899 71.8856C97.4823 71.8535 97.4813 71.8203 97.4869 71.7878C97.4925 71.7554 97.5047 71.7243 97.5226 71.6967C97.5405 71.669 97.5638 71.6454 97.5912 71.6271C98.9577 70.4524 99.8346 68.8048 100.048 67.0114C100.261 65.2179 99.7944 63.4095 98.7413 61.9451C97.6882 60.4806 96.1253 59.4673 94.3626 59.1058C92.5999 58.7442 90.7662 59.0611 89.2254 59.9935C89.0021 60.1284 88.7463 60.1997 88.4856 60.1997C88.225 60.1997 87.9692 60.1284 87.7459 59.9935H87.7296C86.1888 59.0648 84.3568 58.7507 82.5964 59.1136C80.836 59.4765 79.2755 60.4899 78.2238 61.9529C77.1722 63.4159 76.7061 65.222 76.9178 67.0136C77.1295 68.8052 78.0037 70.4517 79.3671 71.6271C79.3901 71.6497 79.4084 71.6767 79.4208 71.7065C79.4333 71.7364 79.4397 71.7685 79.4397 71.8008C79.4397 71.8331 79.4333 71.865 79.4208 71.8949C79.4084 71.9247 79.3901 71.9519 79.3671 71.9745C78.1303 73.3661 77.3123 75.0814 77.0082 76.9212C76.6638 76.1923 76.3855 75.4338 76.1764 74.6549C76.0781 74.2873 75.8749 73.9566 75.5917 73.7034C75.3085 73.4503 74.9578 73.2858 74.5827 73.2302C73.2173 73.0284 71.9685 72.344 71.0609 71.3002C70.1532 70.2565 69.6464 68.9218 69.6315 67.5364C69.6166 66.151 70.0946 64.8057 70.9796 63.7425C71.8646 62.6794 73.0985 61.9681 74.4592 61.7368C74.8009 61.6785 75.121 61.5298 75.3861 61.3056C75.6513 61.0814 75.8519 60.7901 75.9672 60.4619C76.9016 57.7989 78.6156 55.4815 80.8845 53.8133C83.1535 52.1451 85.8716 51.2041 88.6825 51.1136ZM83.8154 60.0698C83.9709 60.0638 84.1266 60.0638 84.2821 60.0698C85.2973 60.1137 86.2853 60.413 87.1553 60.9401C87.5507 61.1789 88.0035 61.305 88.4649 61.305C88.9264 61.305 89.3791 61.1789 89.7745 60.9401C91.078 60.1551 92.6276 59.89 94.1165 60.1975C95.6054 60.5049 96.925 61.3623 97.8141 62.6C98.7033 63.8377 99.097 65.3655 98.9176 66.8809C98.7381 68.3962 97.9984 69.7887 96.8449 70.7826C96.7094 70.9003 96.5986 71.0438 96.519 71.205C96.4394 71.3661 96.3927 71.5418 96.3815 71.7214C96.3703 71.9009 96.3949 72.0808 96.4538 72.2507C96.5127 72.4206 96.6048 72.577 96.7246 72.7107C97.6682 73.7702 98.3403 75.0445 98.6827 76.4235C99.0252 77.8025 99.0276 79.2446 98.6899 80.6247C97.2914 82.0463 95.5952 83.1377 93.7245 83.8195C91.8538 84.5013 89.8553 84.7566 87.8741 84.5668C85.8929 84.377 83.9786 83.7468 82.2701 82.7221C80.5616 81.6974 79.1016 80.3037 77.9962 78.6423C77.9703 76.4565 78.761 74.3403 80.2122 72.7107C80.3315 72.5764 80.4229 72.4195 80.481 72.2493C80.5391 72.079 80.5628 71.8987 80.5507 71.7191C80.5386 71.5395 80.4909 71.3643 80.4105 71.2035C80.33 71.0427 80.2184 70.8996 80.0822 70.7826C79.1527 69.9856 78.4848 68.9251 78.1661 67.7404C77.8473 66.5557 77.8925 65.3019 78.2958 64.1434C78.6991 62.985 79.4416 61.9758 80.4261 61.2484C81.4105 60.5209 82.591 60.109 83.8126 60.0668L83.8154 60.0698ZM128.06 72.0955C129.33 72.0845 130.593 72.265 131.81 72.6311C135.656 73.9112 139.037 76.3068 141.528 79.5156C144.714 83.7258 146.137 89.0187 145.493 94.2665C144.402 100.429 141.453 106.108 137.045 110.534C134.266 113.667 130.859 116.174 127.047 117.891C123.235 119.608 119.104 120.495 114.926 120.495H82.7233C82.5346 120.495 82.3477 120.458 82.1732 120.386C81.9987 120.314 81.8401 120.208 81.7065 120.074C81.5729 119.94 81.4669 119.781 81.3946 119.606C81.3223 119.431 81.2851 119.243 81.2851 119.054V117.868C81.2851 117.417 81.3737 116.97 81.5459 116.553C81.7181 116.136 81.9705 115.757 82.2886 115.438C82.6068 115.119 82.9844 114.866 83.4 114.693C83.8156 114.521 84.261 114.432 84.7107 114.432H85.2123C85.4677 114.433 85.7207 114.383 85.9567 114.285C86.1928 114.187 86.4073 114.043 86.588 113.862C86.7688 113.681 86.9122 113.466 87.0101 113.229C87.108 112.992 87.1584 112.738 87.1586 112.482V111.035C87.208 108.909 88.0839 106.887 89.5992 105.4C91.1144 103.914 93.1487 103.082 95.2671 103.082C97.3854 103.082 99.4197 103.914 100.935 105.4C102.45 106.887 103.326 108.909 103.376 111.035V113.511C103.38 113.656 103.44 113.792 103.543 113.893C103.646 113.994 103.784 114.05 103.928 114.05C104.072 114.05 104.21 113.994 104.313 113.893C104.416 113.792 104.476 113.656 104.48 113.511V111.035C104.481 109.414 104.057 107.822 103.252 106.418C102.447 105.013 101.289 103.845 99.8929 103.032C100.743 102.83 101.544 102.459 102.249 101.941C102.953 101.423 103.546 100.768 103.994 100.015C104.441 99.2614 104.733 98.4256 104.852 97.557C104.971 96.6884 104.915 95.8046 104.687 94.9581C104.096 92.7654 103.279 90.6405 102.249 88.6184C102.182 88.4874 102.066 88.3885 101.926 88.3434C101.786 88.2984 101.634 88.3108 101.504 88.378C101.373 88.4453 101.275 88.5618 101.23 88.702C101.185 88.8422 101.197 88.9947 101.264 89.1258C102.259 91.0788 103.047 93.1307 103.617 95.2483C103.852 96.1227 103.866 97.0424 103.657 97.9236C103.448 98.8047 103.023 99.6195 102.42 100.294C101.818 100.968 101.057 101.48 100.207 101.783C99.3565 102.087 98.4443 102.172 97.553 102.031L81.0533 99.411C80.2784 99.2851 79.5849 98.8558 79.1245 98.2175C78.6642 97.5792 78.4746 96.7839 78.5972 96.0055C78.7198 95.2272 79.1447 94.5293 79.7788 94.0648C80.4129 93.6003 81.2046 93.407 81.9803 93.5272L94.683 95.5449C94.8271 95.5663 94.9739 95.5297 95.0913 95.443C95.2088 95.3563 95.2873 95.2266 95.3099 95.082C95.3325 94.9375 95.2974 94.7898 95.2121 94.6712C95.1268 94.5525 94.9982 94.4725 94.8544 94.4485L88.3111 93.4095C88.4398 90.8119 88.8605 88.2371 89.5652 85.7343C92.244 85.6572 94.8493 84.8371 97.0925 83.3648C99.3356 81.8926 101.129 79.8257 102.274 77.3932C105.709 78.971 108.773 81.2594 111.265 84.1085C113.758 86.9575 115.623 90.3029 116.739 93.9257C118.946 99.7362 119.357 106.079 117.92 112.128C117.867 112.349 117.871 112.58 117.93 112.799C117.99 113.018 118.103 113.218 118.26 113.382C118.417 113.545 118.612 113.666 118.828 113.734C119.043 113.802 119.273 113.814 119.494 113.77C124.538 112.76 129.109 110.109 132.499 106.226C136.029 102.731 138.406 98.2332 139.309 93.3391C139.705 89.7784 138.728 86.2006 136.578 83.3408C134.868 81.1508 132.559 79.5091 129.933 78.617C128.634 78.2446 127.252 78.2929 125.982 78.7547C124.712 79.2164 123.62 80.0684 122.86 81.1893C122.629 81.5301 122.333 81.8217 121.99 82.0478C121.647 82.2739 121.262 82.43 120.859 82.507C120.456 82.584 120.041 82.5803 119.639 82.4965C119.237 82.4126 118.856 82.2501 118.516 82.0182C118.177 81.7863 117.886 81.4895 117.661 81.1449C117.436 80.8002 117.281 80.4145 117.204 80.0096C117.127 79.6046 117.131 79.1885 117.215 78.7849C117.298 78.3814 117.46 77.9983 117.691 77.6576C118.843 75.9586 120.388 74.5652 122.194 73.5966C124 72.628 126.013 72.1127 128.06 72.0955ZM88.9143 101.782L92.213 102.305C91.1876 102.667 90.2341 103.209 89.3968 103.905C89.2148 103.202 89.0549 102.494 88.9174 101.782H88.9143Z" fill="#333B41" stroke="#333B41" stroke-width="0.7"/>
<path d="M93.0678 63.6308C92.4492 63.6419 91.8601 63.8981 91.4289 64.3435C90.9976 64.789 90.7594 65.3875 90.7659 66.0086C90.7659 66.6329 91.013 67.2315 91.4527 67.6729C91.8924 68.1143 92.4888 68.3624 93.1106 68.3624C93.7324 68.3624 94.3288 68.1143 94.7685 67.6729C95.2082 67.2315 95.4552 66.6329 95.4552 66.0086C95.4586 65.6938 95.399 65.3815 95.2799 65.0903C95.1609 64.799 94.9849 64.5346 94.7623 64.3129C94.5396 64.0911 94.275 63.9165 93.9839 63.7993C93.6929 63.6822 93.3814 63.6249 93.0678 63.6308ZM93.0873 64.7527C93.2531 64.7494 93.4179 64.7794 93.5719 64.8412C93.7259 64.903 93.8659 64.9951 93.9838 65.1123C94.1016 65.2294 94.1948 65.3691 94.2579 65.5231C94.3209 65.6771 94.3525 65.8422 94.3508 66.0086C94.3509 66.1721 94.3189 66.334 94.2566 66.4851C94.1944 66.6362 94.1031 66.7735 93.9879 66.8891C93.8728 67.0048 93.7361 67.0964 93.5856 67.159C93.4352 67.2215 93.2739 67.2538 93.1111 67.2538C92.9482 67.2538 92.7869 67.2215 92.6365 67.159C92.486 67.0964 92.3493 67.0048 92.2342 66.8891C92.1191 66.7735 92.0277 66.6362 91.9655 66.4851C91.9032 66.334 91.8712 66.1721 91.8713 66.0086C91.868 65.6806 91.9939 65.3644 92.2217 65.1292C92.4494 64.8939 92.7606 64.7587 93.0873 64.7527Z" fill="#333B41" stroke="#333B41" stroke-width="0.7"/>
<path d="M83.7848 63.6307C83.1662 63.6419 82.5771 63.898 82.1459 64.3435C81.7147 64.7889 81.4765 65.3875 81.4831 66.0086C81.4742 66.3231 81.5282 66.636 81.642 66.9292C81.7557 67.2224 81.9269 67.4898 82.1453 67.7154C82.3638 67.9411 82.6251 68.1203 82.9138 68.2428C83.2025 68.3652 83.5127 68.4284 83.8261 68.4284C84.1395 68.4284 84.4497 68.3652 84.7384 68.2428C85.0271 68.1203 85.2884 67.9411 85.5068 67.7154C85.7253 67.4898 85.8965 67.2224 86.0102 66.9292C86.124 66.636 86.178 66.3231 86.1691 66.0086C86.1724 65.694 86.1129 65.3821 85.9941 65.091C85.8752 64.8 85.6995 64.5357 85.4772 64.314C85.2549 64.0924 84.9906 63.9177 84.6999 63.8003C84.4092 63.6829 84.0981 63.6253 83.7848 63.6307ZM83.8043 64.7527C83.9698 64.7497 84.1342 64.78 84.2879 64.842C84.4415 64.9039 84.5812 64.9962 84.6987 65.1132C84.8162 65.2303 84.9091 65.3699 84.972 65.5237C85.0349 65.6774 85.0664 65.8424 85.0647 66.0086C85.0689 66.1745 85.04 66.3396 84.9797 66.4941C84.9194 66.6486 84.8289 66.7896 84.7135 66.9084C84.5981 67.0273 84.4601 67.1216 84.3078 67.1861C84.1555 67.2506 83.9918 67.2838 83.8265 67.2838C83.6611 67.2838 83.4975 67.2506 83.3451 67.1861C83.1928 67.1216 83.0549 67.0273 82.9395 66.9084C82.8241 66.7896 82.7335 66.6486 82.6732 66.4941C82.6129 66.3396 82.584 66.1745 82.5882 66.0086C82.5849 65.6805 82.7109 65.3643 82.9386 65.1291C83.1664 64.8939 83.4775 64.7586 83.8043 64.7527Z" fill="#333B41" stroke="#333B41" stroke-width="0.7"/>
<path d="M84.498 77.8266C84.9468 78.4645 85.5416 78.9849 86.2324 79.3441C86.9232 79.7033 87.6898 79.891 88.4678 79.891C89.2457 79.891 90.0123 79.7033 90.7031 79.3441C91.3939 78.9849 91.9887 78.4645 92.4375 77.8266C92.5196 77.7063 92.5513 77.5583 92.5256 77.4147C92.4999 77.2712 92.419 77.1436 92.3003 77.0595C92.1816 76.9754 92.0347 76.9417 91.8914 76.9654C91.7481 76.9892 91.6198 77.0685 91.5344 77.1865C91.1877 77.6792 90.7282 78.0814 90.1945 78.3588C89.6609 78.6363 89.0687 78.781 88.4678 78.781C87.8668 78.781 87.2747 78.6363 86.741 78.3588C86.2074 78.0814 85.7479 77.6792 85.4012 77.1865C85.3157 77.0685 85.1875 76.9892 85.0441 76.9654C84.9008 76.9417 84.7539 76.9754 84.6352 77.0595C84.5166 77.1436 84.4356 77.2712 84.41 77.4147C84.3843 77.5583 84.4159 77.7063 84.498 77.8266Z" fill="#333B41" stroke="#333B41" stroke-width="0.7"/>
<defs>
<linearGradient id="paint0_linear_49106_3998" x1="-7.44304" y1="24.8889" x2="195.1" y2="114.913" gradientUnits="userSpaceOnUse">
<stop stop-color="#F9804B"/>
<stop offset="1" stop-color="#FE9013"/>
</linearGradient>
</defs>
</svg>
